<svg width="1600" height="420" viewBox="0 0 1600 420" fill="none" xmlns="http://www.w3.org/2000/svg">
  <defs>
    <linearGradient id="bg" x1="80" y1="40" x2="1520" y2="380" gradientUnits="userSpaceOnUse">
      <stop stop-color="#F4FAFF"/>
      <stop offset="1" stop-color="#D8ECFF"/>
    </linearGradient>
    <linearGradient id="accent" x1="220" y1="90" x2="1460" y2="330" gradientUnits="userSpaceOnUse">
      <stop stop-color="#1E73BE"/>
      <stop offset="1" stop-color="#4BA3F2"/>
    </linearGradient>
  </defs>
  <rect x="20" y="20" width="1560" height="380" rx="34" fill="url(#bg)" stroke="#C0DFFF" stroke-width="2"/>
  <rect x="74" y="88" width="110" height="110" rx="28" fill="url(#accent)"/>
  <path d="M110 118L129 163L148 118H165L136 184H121L92 118H110Z" fill="white"/>
  <path d="M342 148C342 118 366 94 398 94H608C640 94 664 118 664 148V274C664 304 640 328 608 328H398C366 328 342 304 342 274V148Z" fill="white" fill-opacity="0.88" stroke="#BDDFFF"/>
  <rect x="378" y="132" width="252" height="18" rx="9" fill="#DDEEFF"/>
  <rect x="378" y="164" width="214" height="14" rx="7" fill="#EAF4FF"/>
  <rect x="378" y="206" width="104" height="58" rx="16" fill="#1E73BE" fill-opacity="0.12" stroke="#9CCBFF"/>
  <rect x="498" y="206" width="104" height="58" rx="16" fill="#1E73BE" fill-opacity="0.08" stroke="#C9E3FF"/>
  <rect x="378" y="282" width="224" height="16" rx="8" fill="#EAF4FF"/>
  <rect x="716" y="106" width="360" height="78" rx="24" fill="white" fill-opacity="0.92" stroke="#C7E3FF"/>
  <rect x="744" y="132" width="136" height="12" rx="6" fill="#DCEEFF"/>
  <rect x="744" y="154" width="272" height="10" rx="5" fill="#ECF6FF"/>
  <rect x="716" y="200" width="360" height="78" rx="24" fill="white" fill-opacity="0.92" stroke="#C7E3FF"/>
  <rect x="744" y="226" width="104" height="12" rx="6" fill="#DCEEFF"/>
  <rect x="744" y="248" width="232" height="10" rx="5" fill="#ECF6FF"/>
  <rect x="1128" y="106" width="392" height="172" rx="28" fill="white" fill-opacity="0.94" stroke="#C7E3FF"/>
  <rect x="1160" y="136" width="154" height="14" rx="7" fill="#DCEEFF"/>
  <rect x="1160" y="162" width="288" height="13" rx="6.5" fill="#EDF7FF"/>
  <rect x="1160" y="198" width="158" height="54" rx="18" fill="#1E73BE" fill-opacity="0.10" stroke="#A9D2FF"/>
  <rect x="1336" y="198" width="152" height="54" rx="18" fill="#1E73BE" fill-opacity="0.06" stroke="#D0E8FF"/>
  <text x="220" y="126" fill="#1F3D5E" font-family="Segoe UI, Arial, sans-serif" font-size="58" font-weight="700">VoxtralTTS-UI</text>
  <text x="220" y="178" fill="#4E6B88" font-family="Segoe UI, Arial, sans-serif" font-size="26">Desktop studio for local and remote Voxtral TTS workflows</text>
  <text x="220" y="242" fill="#1F3D5E" font-family="Segoe UI, Arial, sans-serif" font-size="24" font-weight="600">Local WSL2 runtime</text>
  <text x="220" y="278" fill="#1F3D5E" font-family="Segoe UI, Arial, sans-serif" font-size="24" font-weight="600">Mistral API mode</text>
  <text x="220" y="314" fill="#1F3D5E" font-family="Segoe UI, Arial, sans-serif" font-size="24" font-weight="600">Premium resizable desktop UI</text>
</svg>
